<svg xmlns="http://www.w3.org/2000/svg" viewBox="0 0 1054.76 769.8"><defs><style>.cls-1{opacity:0.69;}.cls-2{fill:#c7e2f1;stroke:#757779;stroke-miterlimit:10;}</style></defs><title>Asset 1</title><g id="Layer_2" data-name="Layer 2"><g id="Layer_1-2" data-name="Layer 1"><g class="cls-1"><path class="cls-2" d="M346.31,344.83c10.39,29.68,40.07,124.67,46,151.38,5.94,20.78-1.48,28.2-22.26,28.2H352.25c-4.46,0-7.42,1.48-7.42,5.94v16.32c0,4.45,3,7.42,5.93,7.42,17.81,0,43-3,105.38-3,59.36,0,75.69,3,89.05,3,4.45,0,7.42-1.48,7.42-5.93V530.35c0-3-1.49-5.94-5.94-5.94H521.44c-17.81,0-37.1-8.91-50.46-32.65-10.39-22.26-57.88-160.29-75.69-218.17-13.36-47.5-71.24-213.72-86.08-259.73C307.72,5,306.24.5,301.79.5s-5.94,3-10.39,7.42C284,18.31,251.32,40.57,230.55,45c-5.94,1.49-7.43,4.46-7.43,5.94,0,3,3,7.42,5.94,10.39,4.45,7.42,1.49,17.81-1.48,25.23-5.94,19.3-66.79,179.59-71.24,194.43-22.27,60.85-75.7,197.39-81.63,209.26-10.39,23.75-20.78,34.14-43,34.14H6.44c-3,0-5.94,1.48-5.94,5.94v17.81c0,4.45,1.48,5.93,4.45,5.93,10.39,0,26.72-3,81.63-3,43,0,74.21,3,84.6,3,3,0,5.94-1.48,5.94-7.42V530.35c0-4.46-3-5.94-7.43-5.94H134.07c-16.32,0-25.23-5.94-25.23-16.33,0-3,1.49-10.39,3-16.32,3-14.84,44.53-127.64,51.95-146.93ZM172.66,318.11c5.94-17.81,75.7-207.78,80.15-218.17,1.48-5.94,4.45-10.39,7.42-10.39s4.45,4.45,5.94,10.39c4.45,10.39,63.81,195.91,71.24,218.17Z"/><path class="cls-2" d="M910.29,769.3c86.08,0,127.64-68.27,138-93.51,1.48-3,1.48-5.93,0-5.93l-10.39-7.42c-3-1.49-4.45-1.49-5.94,1.48-3,5.94-37.1,57.88-81.63,57.88-47.49,0-81.62-37.1-100.92-56.39-10.39-8.91-44.52-49-56.4-62.34,20.78-20.78,98-133.57,102.41-141,11.87-19.29,19.29-22.26,56.4-22.26h13.36c4.45,0,4.45-1.48,4.45-4.45V419c0-3,0-4.45-4.45-4.45s-49,1.49-77.18,1.49c-25.23,0-65.3-1.49-71.24-1.49-4.45,0-5.94,1.49-5.94,3v16.33c0,3,1.49,5.93,5.94,5.93h11.87c16.33,0,25.23,10.39,23.75,22.26-3,22.27-50.46,92-74.21,121.71-37.1-54.92-103.89-117.25-155.84-145.45C653.53,422,702.51,374.51,704,335.92c1.49-49-49-102.41-103.89-102.41-44.52,0-120.22,68.28-120.22,126.16,0,26.71,25.24,63.82,77.18,93.5C525.89,469.5,496.21,488.79,471,514c-29.68,28.2-60.85,71.24-60.85,124.67,0,86.08,84.6,130.61,155.84,130.61,95,0,148.41-72.73,185.52-117.25,31.16,40.07,78.66,117.25,158.8,117.25ZM594.17,724.77c-56.4,0-121.71-49-123.19-111.31C469.5,552.61,517,497.69,571.9,468,641.66,508.08,701,586.74,735.16,634.24c-19.29,22.26-68.27,90.53-141,90.53Zm5.93-464.54c37.11,0,59.37,49,59.37,74.21,0,56.39-34.14,78.66-53.43,93.5-34.14-22.26-75.69-54.91-75.69-81.63,0-43,32.65-86.08,69.75-86.08Z"/><path class="cls-2" d="M902.87,554.09c98,0,151.39-75.69,151.39-163.26,0-49-13.36-77.17-32.66-100.92-26.71-32.65-68.27-44.52-120.21-60.85-20.78-7.42-62.34-23.75-84.6-44.52C799,165.24,794.53,140,794.53,119.23c0-37.1,23.74-86.08,89.05-86.08,35.62,0,60.85,10.39,81.63,31.17,29.68,32.65,40.07,60.85,46,83.11,0,1.49,1.48,3,4.45,1.49l8.9-1.49c3-1.48,3-3,3-5.93,0-16.33-10.39-92-10.39-118.74,0-5.93-1.48-11.87-5.93-11.87q-4.46,0-8.91,4.45l-10.39,8.91c-3,3-7.42,4.45-13.36,0-13.35-5.94-46-17.81-87.56-17.81-40.07,0-77.18,10.39-103.89,35.62-23.75,20.78-46,57.88-46,95,0,49,11.87,83.12,37.1,108.35,31.17,32.65,84.6,51.94,108.35,59.36,59.36,20.78,114.28,49,114.28,126.16,0,66.78-56.4,93.5-100.93,93.5-41.55,0-81.63-19.29-103.89-54.91-25.23-37.11-26.71-62.34-26.71-86.09,0-4.45-1.49-5.93-4.46-5.93H753c-3,0-4.45,0-4.45,4.45-3,20.78-10.39,115.76-13.36,133.57-1.48,8.91,3,11.88,7.42,11.88s8.91,0,13.36-8.91c4.45-7.42,7.42-11.87,11.87-11.87,3,0,7.42,1.48,16.33,8.9,29.68,22.27,66.79,38.59,118.73,38.59Z"/></g></g></g></svg>